# xmcd
#
# Track frame offsets:
#	150
#	12071
#	26656
#	45695
#	63107
#	72265
#	89457
#	104381
#	119990
#	141348
#	154126
#	173419
#	203189
#
# Disc length: 2967 seconds
#
# Revision: 1
# Processed by: cddbd v1.5.2PL0 Copyright (c) Steve Scherf et al.
# Submitted via: audiograbber 1.83.01
#
DISCID=b20b950d
DTITLE=All Star Karaoke - ASK-86 COUONTRY LOVE: VOLUME 2 DISC 1
DYEAR=1900
DGENRE=Karaoke
TTITLE0=Alan Jackson - www.Memory
TTITLE1=Andy Griggs - Tonight I Wanna Be Your Man
TTITLE2=Billy Currington - Must Be Doing Something Right
TTITLE3=Brad Paisley - We Danced
TTITLE4=Charley Pride - Kiss An Angel Good Morning
TTITLE5=David Frizzell and Shelly West - You're The Reason God Made Oklahoma
TTITLE6=David Houston - Almost Persuaded
TTITLE7=Dixie Chicks - You Were Mine
TTITLE8=Dolly Parton - Just When I Needed You Most
TTITLE9=Donna Fargo - The Happiest Girl In The Whole USA
TTITLE10=Faith Hill and Tim McGraw - Like We Never Loved At All
TTITLE11=Gary Allan - Best I Ever Had
TTITLE12=Data - Data
EXTD=
EXTT0=
EXTT1=
EXTT2=
EXTT3=
EXTT4=
EXTT5=
EXTT6=
EXTT7=
EXTT8=
EXTT9=
EXTT10=
EXTT11=
EXTT12=
PLAYORDER=
